# xmcd
#
# Track frame offsets:
#	150
#	27794
#	44039
#	64102
#	84306
#	99092
#	117049
#	132172
#	155791
#	172627
#	193788
#	210307
#	227147
#	238226
#	255652
#	273442
#	290158
#	305119
#	323433
#	338547
#
# Disc length: 4717 seconds
#
# Revision: 0
# Processed by: cddbd v1.5.2PL0 Copyright (c) Steve Scherf et al.
# Submitted via: EasyCDDAExtractor 16.0.9.1
#
DISCID=14126b14
DTITLE=Various Artist - Viva Sexy Sexy Dance
DYEAR=2000
DGENRE=Dance
TTITLE0=DJ Fou - Je Met Le Wai (Franch Rap Hit No.1 In Europe) (666 Remix)
TTITLE1=Crosstalk - Love Is The Reason (Radio Mix)
TTITLE2=Vengaboys - Shala La
TTITLE3=Madonna - American Pie
TTITLE4=Lady Easy - My Body Dance (Extended Version)
TTITLE5=Ricky - No. 1
TTITLE6=Bob! - Wooly Bully
TTITLE7=Mandy - Magic Moon (Extended Version)
TTITLE8=Joy vs. Area 51 - Touch By Touche
TTITLE9=Sting - Desret Rose (Remix)
TTITLE10=Modern Talking - Cosmic Girl
TTITLE11=Random - Making Me High (Radio Mix)
TTITLE12=Aiko Van Daiko - Let's Party
TTITLE13=Madness - Elysium (Radio Mix)
TTITLE14=Boney M 2000 - Sunny (Club Mix)
TTITLE15=Sugar Land - Wodka (Extended Version)
TTITLE16=Copeland - Verano Del Amor (Radio Mix)
TTITLE17=Jessica Simpson - I Wanna Love You Forever (Radio Edit)
TTITLE18=Tambler - Tambler Song (Italo Mix)
TTITLE19=A.C. One  - Sing A Song (Italo Remix)
EXTD=
EXTT0=
EXTT1=
EXTT2=
EXTT3=
EXTT4=
EXTT5=
EXTT6=
EXTT7=
EXTT8=
EXTT9=
EXTT10=
EXTT11=
EXTT12=
EXTT13=
EXTT14=
EXTT15=
EXTT16=
EXTT17=
EXTT18=
EXTT19=
PLAYORDER=
